<svg width="696" height="201" viewBox="0 0 696 201" fill="none" xmlns="http://www.w3.org/2000/svg">
<path d="M161.024 58.2H212.864V61.368H197.6V155.832H202.784C210.944 155.832 217.424 153.336 222.224 148.344C227.12 143.352 232.064 135.672 237.056 125.304H240.08L237.344 159H161.024V155.832H169.52V61.368H161.024V58.2ZM278.773 160.44C266.389 160.44 257.077 157.272 250.837 150.936C244.693 144.504 241.621 135.624 241.621 124.296C241.621 112.872 245.077 104.136 251.989 98.088C258.997 92.04 267.877 89.016 278.629 89.016C300.421 89.016 310.885 99.96 310.021 121.848H269.413V127.464C269.413 136.872 270.613 143.976 273.013 148.776C275.413 153.576 279.589 155.976 285.541 155.976C296.677 155.976 303.973 150.024 307.429 138.12L310.021 138.552C308.197 145.464 304.885 150.84 300.085 154.68C295.381 158.52 288.277 160.44 278.773 160.44ZM269.557 118.968H284.389V111.912C284.389 104.136 283.909 98.856 282.949 96.072C282.085 93.192 280.261 91.752 277.477 91.752C274.789 91.752 272.773 93.288 271.429 96.36C270.181 99.336 269.557 104.52 269.557 111.912V118.968ZM346.255 60.792C347.599 57.912 347.791 55.512 346.831 53.592C345.967 51.576 344.095 50.568 341.215 50.568C338.431 50.568 336.175 51.336 334.447 52.872C332.815 54.408 331.999 56.568 331.999 59.352C331.999 62.04 332.671 64.728 334.015 67.416L345.535 90.456H363.103V93.048H345.535V156.408H361.087V159H310.831V156.408H318.751V93.048H310.399V90.456H318.751V83.688C318.751 73.128 320.911 64.488 325.231 57.768C329.551 51.048 335.935 47.688 344.383 47.688C350.815 47.688 355.663 49.272 358.927 52.44C362.287 55.608 363.967 59.304 363.967 63.528C363.967 67.656 362.863 70.776 360.655 72.888C358.447 74.904 355.519 75.912 351.871 75.912C348.319 75.912 345.535 74.856 343.519 72.744C341.599 70.632 340.639 67.944 340.639 64.68C340.639 63.336 340.687 62.328 340.783 61.656L346.255 60.792ZM366.867 138.408V93.048H358.947V90.456H366.867V71.88L393.651 65.256V90.456H412.371V93.048H393.651V141.576C393.651 146.088 394.083 149.4 394.947 151.512C395.907 153.624 397.827 154.68 400.707 154.68C403.587 154.68 406.083 153.24 408.195 150.36C410.403 147.48 411.843 143.544 412.515 138.552L414.963 138.84C414.195 145.464 412.083 150.744 408.627 154.68C405.171 158.52 399.459 160.44 391.491 160.44C383.523 160.44 377.427 158.856 373.203 155.688C368.979 152.52 366.867 146.76 366.867 138.408ZM462.995 50.136C452.147 50.136 446.723 55.896 446.723 67.416V90.456H494.099V156.408H502.163V159H460.835V156.408H467.315V93.048H446.723V156.408H455.939V159H412.019V156.408H419.939V93.048H411.587V90.456H419.939V90.168C419.939 76.728 423.683 66.312 431.171 58.92C438.659 51.432 449.747 47.688 464.435 47.688C472.499 47.688 478.835 49.416 483.443 52.872C488.147 56.232 490.499 60.168 490.499 64.68C490.499 69.192 489.347 72.504 487.043 74.616C484.739 76.728 481.763 77.784 478.115 77.784C474.467 77.784 471.587 76.872 469.475 75.048C467.363 73.128 466.307 70.968 466.307 68.568C466.307 66.072 466.595 63.672 467.171 61.368L473.075 59.784C474.323 56.52 473.891 54.12 471.779 52.584C469.667 50.952 466.739 50.136 462.995 50.136ZM538.665 160.44C526.281 160.44 516.969 157.272 510.729 150.936C504.585 144.504 501.513 135.624 501.513 124.296C501.513 112.872 504.969 104.136 511.881 98.088C518.889 92.04 527.769 89.016 538.521 89.016C560.313 89.016 570.777 99.96 569.913 121.848H529.305V127.464C529.305 136.872 530.505 143.976 532.905 148.776C535.305 153.576 539.481 155.976 545.433 155.976C556.569 155.976 563.865 150.024 567.321 138.12L569.913 138.552C568.089 145.464 564.777 150.84 559.977 154.68C555.273 158.52 548.169 160.44 538.665 160.44ZM529.449 118.968H544.281V111.912C544.281 104.136 543.801 98.856 542.841 96.072C541.977 93.192 540.153 91.752 537.369 91.752C534.681 91.752 532.665 93.288 531.321 96.36C530.073 99.336 529.449 104.52 529.449 111.912V118.968ZM570.147 51H605.427V156.408H613.491V159H570.723V156.408H578.643V53.592H570.147V51ZM641.198 129.192C641.198 139.272 641.726 145.992 642.782 149.352C643.838 152.616 645.758 154.248 648.542 154.248C651.422 154.248 653.87 153 655.886 150.504C657.998 148.008 659.054 144.312 659.054 139.416V108.024C659.054 103.896 658.238 100.392 656.606 97.512C654.974 94.632 652.574 93.192 649.406 93.192C646.238 93.192 644.078 95.304 642.926 99.528C641.774 103.752 641.198 111.144 641.198 121.704V129.192ZM660.926 159L659.342 148.92C656.078 156.6 649.454 160.44 639.47 160.44C631.214 160.44 624.782 157.464 620.174 151.512C615.662 145.56 613.406 136.68 613.406 124.872C613.406 100.968 622.91 89.016 641.918 89.016C650.366 89.016 655.934 91.368 658.622 96.072V53.592H649.838V51H685.838V156.408H692.894V159H660.926Z" fill="black"/>
<path fill-rule="evenodd" clip-rule="evenodd" d="M11.4 147.149H82.276V176.891H11.4V147.149ZM11.4 106.011H82.276V135.749H11.4V106.011ZM11.4 64.877H82.276V94.611H11.4V64.877ZM0 0.00401268V200.634H11.4V188.291H82.276V200.634H93.672V0H82.276V12.343H11.4V0.00401268H0ZM11.4 23.743H82.276V53.481H11.4V23.743Z" fill="black"/>
</svg>
